<?xml version="1.0" encoding="UTF-8"?>
<svg id="Layer_1" data-name="Layer 1" xmlns="http://www.w3.org/2000/svg" viewBox="0 0 2232.21 2171.64">
  <defs>
    <style>
      .cls-1 {
        fill: #fff;
      }

      .cls-2 {
        fill: #f57e20;
      }
    </style>
  </defs>
  <g>
    <g>
      <path class="cls-2" d="M32.76,2135.6L1128.56,26.56c3.08-5.93,.75-13.22-5.2-16.29l-1.83-.94c-5.95-3.07-13.28-.75-16.36,5.18L9.38,2123.55c-3.08,5.93-.75,13.22,5.2,16.29l1.83,.94c5.95,3.07,13.28,.75,16.36-5.18Z"/>
      <path class="cls-2" d="M21.95,2150.11c-3.11,0-6.27-.72-9.23-2.24l-1.83-.94c-4.78-2.46-8.31-6.63-9.94-11.74-1.63-5.11-1.17-10.54,1.31-15.3L1098.07,10.84c5.1-9.82,17.28-13.68,27.15-8.6l1.83,.94c4.78,2.46,8.31,6.63,9.94,11.74,1.63,5.11,1.17,10.54-1.31,15.3L39.87,2139.27c-3.58,6.89-10.63,10.84-17.92,10.84ZM1115.96,15.95c-1.5,0-2.94,.81-3.68,2.22L16.49,2127.21c-.51,.98-.6,2.09-.27,3.14,.33,1.05,1.06,1.9,2.04,2.41l1.83,.94c2.02,1.04,4.52,.25,5.56-1.76L1121.45,22.89c.51-.98,.6-2.09,.27-3.14s-1.06-1.9-2.04-2.41l-1.83-.94c-.6-.31-1.25-.46-1.89-.46Z"/>
    </g>
    <g>
      <path class="cls-2" d="M73.3,2151.32L1144.51,89.61c1.25-2.4,.3-5.36-2.11-6.6h0c-2.41-1.24-5.38-.3-6.63,2.1L64.56,2146.82c-1.25,2.4-.3,5.36,2.11,6.6h0c2.41,1.24,5.38,.3,6.63-2.1Z"/>
      <path class="cls-2" d="M68.91,2161.94c-2,0-4.02-.46-5.92-1.44-6.33-3.27-8.81-11.05-5.54-17.35L1128.67,81.44c1.59-3.05,4.27-5.31,7.56-6.35,3.29-1.04,6.79-.74,9.86,.83,3.07,1.58,5.33,4.26,6.38,7.53,1.05,3.28,.75,6.76-.84,9.82L80.41,2154.99c-2.3,4.42-6.82,6.96-11.5,6.96Z"/>
    </g>
    <g>
      <path class="cls-2" d="M475.11,1869.85L1276.02,328.38c.73-1.4,2.45-1.94,3.86-1.22l3.62,1.87c1.4,.72,1.95,2.44,1.23,3.84L483.82,1874.34c-.73,1.4-2.45,1.94-3.86,1.22l-3.62-1.87c-1.4-.72-1.95-2.44-1.23-3.84Z"/>
      <path class="cls-2" d="M481.27,1883.86c-1.71,0-3.41-.41-4.98-1.22l-3.62-1.87c-2.58-1.33-4.48-3.58-5.36-6.33-.88-2.76-.63-5.69,.71-8.26L1268.91,324.71c1.33-2.57,3.59-4.46,6.36-5.34,2.77-.88,5.71-.63,8.29,.7l3.63,1.87c2.58,1.33,4.48,3.58,5.36,6.33,.88,2.76,.63,5.69-.7,8.25L490.93,1878.01c-1.33,2.57-3.59,4.47-6.36,5.34-1.08,.34-2.2,.51-3.3,.51Zm.96-10.35h0s0,0,0,0Z"/>
    </g>
    <g>
      <rect class="cls-2" x="67.41" y="2142.06" width="586.67" height="17.91" rx="4.1" ry="4.1"/>
      <path class="cls-2" d="M647.51,2167.95H73.97c-8.03,0-14.57-6.51-14.57-14.52v-4.83c0-8,6.54-14.51,14.57-14.51H647.51c8.03,0,14.57,6.51,14.57,14.51v4.83c0,8-6.54,14.52-14.57,14.52Zm-572.1-15.95H646.07v-1.96H75.41v1.96Z"/>
    </g>
    <g>
      <path class="cls-2" d="M1142.86,82.75l142.26,245.44c1.03,1.79,.42,4.07-1.37,5.1h0c-1.79,1.03-4.08,.42-5.12-1.37l-142.26-245.44c-1.03-1.79-.42-4.07,1.37-5.1h0c1.79-1.03,4.08-.42,5.12,1.37Z"/>
      <path class="cls-2" d="M1281.89,341.75c-4.06,0-8.02-2.1-10.2-5.85l-142.26-245.44c-3.24-5.59-1.31-12.77,4.3-15.99,2.72-1.56,5.89-1.98,8.92-1.17,3.03,.81,5.57,2.75,7.14,5.46l142.26,245.44c1.57,2.71,1.99,5.86,1.17,8.89s-2.76,5.55-5.48,7.11c-1.85,1.06-3.86,1.56-5.86,1.57Zm-145.97-255.02s0,0,0,0h0Z"/>
    </g>
    <g>
      <rect class="cls-2" x="477.95" y="1861.24" width="320.79" height="15.78" rx="4.1" ry="4.1"/>
      <path class="cls-2" d="M792.17,1884.99H484.51c-8.03,0-14.57-6.51-14.57-14.51v-2.7c0-8,6.54-14.51,14.57-14.51h307.66c8.03,0,14.57,6.51,14.57,14.51v2.7c0,8-6.54,14.51-14.57,14.51Z"/>
    </g>
    <g>
      <path class="cls-2" d="M643.04,2147.77l145.34-279.72c1.67-3.21,5.63-4.46,8.85-2.8l.42,.22c3.22,1.66,4.48,5.61,2.81,8.81l-145.34,279.72c-1.67,3.21-5.63,4.46-8.85,2.8l-.42-.22c-3.22-1.66-4.48-5.61-2.81-8.81Z"/>
      <path class="cls-2" d="M649.27,2165.5c-2.25,0-4.54-.52-6.67-1.62l-.43-.22c-3.44-1.78-6-4.79-7.18-8.49-1.18-3.69-.84-7.63,.95-11.07l145.34-279.72c1.79-3.44,4.82-5.99,8.53-7.16,3.71-1.17,7.66-.84,11.11,.94l.41,.21c7.15,3.68,9.95,12.46,6.25,19.57l-145.34,279.72c-2.59,4.98-7.69,7.84-12.97,7.84Z"/>
    </g>
    <g>
      <path class="cls-2" d="M757.57,2149.24L1475.4,767.66c3.08-5.93,.75-13.22-5.2-16.29l-2.82-1.45c-5.95-3.07-13.28-.75-16.36,5.18l-717.83,1381.58c-3.08,5.93-.75,13.22,5.2,16.29l2.82,1.45c5.95,3.07,13.28,.75,16.36-5.18Z"/>
      <path class="cls-2" d="M746.76,2163.75c-3.11,0-6.27-.72-9.23-2.24l-2.82-1.45c-4.78-2.46-8.31-6.63-9.94-11.74-1.63-5.11-1.17-10.54,1.31-15.3L1443.92,751.43c2.47-4.76,6.66-8.28,11.79-9.9,5.13-1.62,10.58-1.16,15.36,1.3l2.82,1.45c4.78,2.46,8.31,6.63,9.94,11.74,1.63,5.11,1.17,10.54-1.31,15.3l-717.83,1381.58c-3.58,6.89-10.63,10.84-17.92,10.84ZM1461.81,756.54c-1.5,0-2.94,.81-3.67,2.22l-717.83,1381.58c-.51,.98-.6,2.09-.27,3.14,.33,1.05,1.06,1.9,2.04,2.41l2.82,1.45c2.02,1.04,4.52,.25,5.57-1.76L1468.29,764c.51-.98,.6-2.09,.27-3.14-.33-1.05-1.06-1.9-2.04-2.41l-2.82-1.45c-.61-.31-1.25-.46-1.89-.46Z"/>
    </g>
    <g>
      <path class="cls-2" d="M805.45,2155.12L1508.44,802.11c.76-1.47,.19-3.28-1.29-4.04h0c-1.47-.76-3.29-.19-4.05,1.28l-702.99,1353.01c-.76,1.47-.19,3.28,1.29,4.04h0c1.47,.76,3.29,.19,4.05-1.28Z"/>
      <path class="cls-2" d="M802.76,2164.71c-1.7,0-3.43-.39-5.05-1.23-2.61-1.35-4.54-3.63-5.43-6.42-.89-2.79-.64-5.77,.72-8.37L1495.99,795.69c1.35-2.6,3.64-4.52,6.44-5.41,2.81-.89,5.79-.63,8.4,.71,2.61,1.35,4.54,3.63,5.43,6.42,.89,2.79,.64,5.76-.71,8.37l-702.99,1353.01c-1.96,3.76-5.81,5.92-9.8,5.92Zm-4.41-13.29s-.01,.02-.01,.03h0s.02-.03,.02-.03Z"/>
    </g>
    <g>
      <path class="cls-2" d="M1077.47,2157.27l575.81-1108.24c.38-.73,.09-1.64-.64-2.02h0c-.74-.38-1.64-.09-2.03,.64l-575.81,1108.24c-.38,.73-.09,1.64,.64,2.02h0c.74,.38,1.64,.09,2.03-.64Z"/>
      <path class="cls-2" d="M1076.12,2166.06c-1.5,0-2.99-.36-4.36-1.07-4.65-2.4-6.48-8.13-4.07-12.76l575.81-1108.24c1.17-2.25,3.15-3.91,5.57-4.67,2.42-.76,5-.55,7.25,.62,4.65,2.4,6.48,8.13,4.07,12.76l-575.81,1108.24c-1.17,2.24-3.14,3.9-5.56,4.67-.95,.3-1.93,.45-2.9,.45Z"/>
    </g>
    <g>
      <rect class="cls-2" x="801.25" y="2148.17" width="276.67" height="13.08" rx="4.1" ry="4.1"/>
      <path class="cls-2" d="M1071.36,2169.23h-263.55c-8.03,0-14.57-6.51-14.57-14.52s6.54-14.51,14.57-14.51h263.55c8.04,0,14.57,6.51,14.57,14.51s-6.54,14.52-14.57,14.52Z"/>
    </g>
    <g>
      <path class="cls-2" d="M1510.1,799.4l142.68,246.17c1.03,1.79,.42,4.07-1.37,5.1h0c-1.79,1.03-4.08,.42-5.12-1.37l-142.68-246.17c-1.03-1.79-.42-4.07,1.37-5.1h0c1.79-1.03,4.08-.42,5.12,1.37Z"/>
      <path class="cls-2" d="M1649.56,1059.15c-1.02,0-2.05-.13-3.06-.4-3.03-.81-5.57-2.75-7.14-5.46l-142.68-246.16c-1.57-2.71-1.99-5.86-1.17-8.89s2.76-5.55,5.48-7.11c5.61-3.23,12.81-1.31,16.06,4.28h0s142.68,246.17,142.68,246.17c1.57,2.71,1.99,5.86,1.17,8.89s-2.76,5.55-5.48,7.11c-1.81,1.04-3.82,1.57-5.86,1.57Zm-146.39-255.76h0s0,.01,0,.02v-.02Z"/>
    </g>
    <g>
      <rect class="cls-2" x="1210.74" y="2145.76" width="1012.01" height="17.91" rx="4.1" ry="4.1"/>
      <path class="cls-2" d="M2216.19,2171.64h-998.88c-8.04,0-14.57-6.51-14.57-14.51v-4.83c0-8,6.54-14.52,14.57-14.52h998.88c8.03,0,14.57,6.51,14.57,14.52v4.83c0,8-6.54,14.51-14.57,14.51Zm-997.44-15.95h996v-1.96h-996v1.96Z"/>
    </g>
    <g>
      <path class="cls-2" d="M1217.97,2159.54l145.95-280.89c.38-.73,.09-1.64-.64-2.02l-4.39-2.26c-.74-.38-1.64-.09-2.03,.64l-145.95,280.89c-.38,.73-.09,1.64,.64,2.02l4.39,2.26c.74,.38,1.64,.09,2.03-.64Z"/>
      <path class="cls-2" d="M1216.62,2168.33c-1.5,0-2.99-.36-4.36-1.07l-4.39-2.26c-2.26-1.16-3.92-3.13-4.69-5.54-.77-2.41-.55-4.97,.62-7.22l145.95-280.9c1.17-2.25,3.15-3.91,5.57-4.68,2.42-.76,5-.55,7.25,.62l4.39,2.26c2.26,1.16,3.92,3.13,4.69,5.54s.55,4.98-.62,7.23l-145.95,280.89c-1.17,2.25-3.14,3.91-5.56,4.68-.95,.3-1.92,.45-2.89,.45Zm-5.77-12.46s0,0,0,0h0Z"/>
    </g>
    <g>
      <path class="cls-2" d="M1548.82,1522.79l165.62-318.75c.38-.73,.09-1.64-.64-2.02l-4.39-2.26c-.74-.38-1.64-.09-2.03,.64l-165.62,318.75c-.38,.73-.09,1.64,.64,2.02l4.39,2.26c.74,.38,1.64,.09,2.03-.64Z"/>
      <path class="cls-2" d="M1547.47,1531.57c-1.47,0-2.96-.34-4.35-1.06l-4.39-2.27c-4.66-2.4-6.49-8.13-4.07-12.77l165.62-318.75c2.41-4.64,8.16-6.46,12.81-4.06l4.4,2.27c4.65,2.4,6.48,8.12,4.08,12.75l-165.63,318.76c-1.69,3.25-5.02,5.11-8.46,5.11Z"/>
    </g>
    <g>
      <rect class="cls-2" x="1354.05" y="1873.82" width="398" height="15.78" rx="4.1" ry="4.1"/>
      <path class="cls-2" d="M1745.49,1897.58h-384.87c-8.04,0-14.57-6.51-14.57-14.52v-2.7c0-8,6.54-14.52,14.57-14.52h384.87c8.04,0,14.57,6.51,14.57,14.52v2.7c0,8-6.54,14.52-14.57,14.52Z"/>
    </g>
    <g>
      <path class="cls-2" d="M1558.86,1518.55l192.45,357.93c1.71,3.18,.51,7.15-2.69,8.85l-2.39,1.27c-3.2,1.71-7.17,.51-8.89-2.68l-192.45-357.93c-1.71-3.18-.51-7.15,2.69-8.85l2.39-1.27c3.2-1.71,7.17-.51,8.89,2.68Z"/>
      <path class="cls-2" d="M1743.16,1895.35c-5.21,0-10.25-2.78-12.87-7.66l-192.45-357.93c-3.79-7.05-1.12-15.86,5.96-19.65l2.4-1.28c3.42-1.83,7.37-2.22,11.09-1.1,3.73,1.12,6.79,3.62,8.63,7.04h0s192.45,357.93,192.45,357.93c1.84,3.42,2.23,7.34,1.1,11.05-1.13,3.71-3.64,6.76-7.07,8.59l-2.39,1.27c-2.18,1.17-4.54,1.72-6.86,1.72Z"/>
    </g>
    <g>
      <path class="cls-2" d="M1713.59,1204.22l510.07,948.64c1.17,2.18,.35,4.89-1.84,6.06h0c-2.19,1.17-4.91,.35-6.09-1.83l-510.07-948.64c-1.17-2.18-.35-4.89,1.84-6.06h0c2.19-1.17,4.91-.35,6.09,1.83Z"/>
      <path class="cls-2" d="M2219.72,2167.43c-4.46,0-8.79-2.39-11.04-6.57l-510.07-948.65c-1.58-2.93-1.91-6.3-.95-9.48,.97-3.18,3.12-5.8,6.06-7.37,2.95-1.57,6.33-1.9,9.52-.94,3.2,.96,5.83,3.11,7.4,6.04l510.07,948.64c1.58,2.93,1.91,6.3,.95,9.48-.97,3.18-3.12,5.8-6.06,7.37-1.87,1-3.89,1.47-5.88,1.47Z"/>
    </g>
  </g>
  <polygon class="cls-1" points="1137.94 119.6 91.27 2134.09 641.09 2134.16 770.55 1884.99 528.68 1883.86 472.66 1880.78 468.52 1877.01 466.78 1872.19 466.78 1868.13 1267.16 328.09 1141.9 111.98 1137.94 119.6"/>
  <polygon class="cls-1" points="1506.26 823.65 822.22 2140.2 1071.36 2140.2 1639.36 1053.29 1506.26 823.65"/>
  <polygon class="cls-1" points="1709.09 1231.69 1563.63 1511.64 1759.4 1875.15 1760.06 1887.38 1754.74 1894.27 1747.79 1897.39 1738.53 1897.39 1363.1 1897.58 1238.29 2137.78 2196.27 2137.78 1709.09 1231.69"/>
</svg>